# xmcd
#
# Track frame offsets:
#	150
#	10291
#	20638
#	30510
#	43536
#	51467
#	63204
#	77237
#	88293
#	96036
#	108427
#	114222
#	125369
#	135629
#	149026
#	161209
#	173419
#	182881
#	196021
#	206856
#
# Disc length: 2804
#
# Revision: 1
# Processed by: cddbd v1.5.1PL0 Copyright (c) Steve Scherf et al.
# Submitted via: MusicManager v6.0.0.0
# Normalized: r0:DSETVAR1
#
DISCID=180af214
DTITLE=Various Artist - Grand Ole Opry Transcription
DYEAR=1900
DGENRE=country
TTITLE0=Faron Young - Intro/To Be Alone With You
TTITLE1=Willie Nelson - Touch Me
TTITLE2=Del Wood - 12th Street Rag
TTITLE3=Faron Young - Rhinestones
TTITLE4=Opry Band - Old Joe Clark
TTITLE5=Ernie Ashworth - Pushed in a Corner
TTITLE6=Willie Nelson - Mister Record Man
TTITLE7=Darrel McCall - Another Day Another Dollar
TTITLE8=Country Deputies - Preacher
TTITLE9=Faron Young and Willie Nelson - Hello Walls
TTITLE10=Del Wood - Outro
TTITLE11=Faron Young - Intro/Live Fast, Love Hard, and Die Young
TTITLE12=Jean Shepherd - Sweet Temptation
TTITLE13=Willie Nelson - I Never Cared For You
TTITLE14=Osborne Brothers - Charlie Cotton
TTITLE15=Faron Young - My Friend on the Right
TTITLE16=Del Wood - Down Yonder
TTITLE17=Jean Shepherd - Two Little Boys
TTITLE18=Faron Young - Faded Love
TTITLE19=Opry Band - Outro
EXTD=
EXTT0=
EXTT1=
EXTT2=
EXTT3=
EXTT4=
EXTT5=
EXTT6=
EXTT7=
EXTT8=
EXTT9=
EXTT10=
EXTT11=
EXTT12=
EXTT13=
EXTT14=
EXTT15=
EXTT16=
EXTT17=
EXTT18=
EXTT19=
PLAYORDER=
